<svg xmlns="http://www.w3.org/2000/svg" xmlns:xlink="http://www.w3.org/1999/xlink" width="179" height="32" viewBox="0 0 179 32"><defs><style>.a,.c{fill:#fff;}.b{clip-path:url(#a);}.c{font-size:20px;font-family:Magneto-Bold, Magneto;font-weight:700;}</style><clipPath id="a"><rect class="a" width="27.75" height="31.714"/></clipPath></defs><g transform="translate(2148 -7363)"><g transform="translate(-2148 7363)"><g class="b"><path class="a" d="M21.8,9.911V7.929a7.929,7.929,0,0,0-15.857,0V9.911H0V26.759a4.955,4.955,0,0,0,4.955,4.955H22.795a4.955,4.955,0,0,0,4.955-4.955V9.911ZM9.911,7.929a3.964,3.964,0,0,1,7.929,0V9.911H9.911Zm9.911,7.433a1.487,1.487,0,1,1,1.487-1.487A1.487,1.487,0,0,1,19.821,15.362Zm-11.893,0a1.487,1.487,0,1,1,1.487-1.487A1.487,1.487,0,0,1,7.929,15.362Z"/></g><text class="c" transform="translate(28 26)"><tspan x="0" y="0">Next WromoX</tspan></text></g></g></svg>