<svg xmlns="http://www.w3.org/2000/svg" xmlns:xlink="http://www.w3.org/1999/xlink" width="182.31" height="33.117" viewBox="0 0 182.31 33.117"><defs><style>.a,.c{fill:#141f38;}.b{clip-path:url(#a);}.c{stroke:#141f38;font-size:22px;font-family:LucidaSans-Typewriter, Lucida Sans Typewriter;font-style:italic;}</style><clipPath id="a"><rect class="a" width="27.75" height="33.117"/></clipPath></defs><g transform="translate(2024 -7260.598)"><g transform="translate(-2024 7260.598)"><path class="a" d="M216.543,13.545Z" transform="translate(-34.233 0.599)"/><g class="b"><path class="a" d="M21.8,10.349V8.279A8.119,8.119,0,0,0,13.875,0,8.119,8.119,0,0,0,5.946,8.279v2.07H0V27.942a5.068,5.068,0,0,0,4.955,5.175H22.795a5.069,5.069,0,0,0,4.955-5.175V10.349ZM9.911,8.279a4.059,4.059,0,0,1,3.964-4.14,4.059,4.059,0,0,1,3.964,4.14v2.07H9.911Zm9.911,7.762a1.554,1.554,0,1,1,1.487-1.552A1.521,1.521,0,0,1,19.821,16.041Zm-11.893,0a1.554,1.554,0,1,1,1.487-1.552A1.521,1.521,0,0,1,7.929,16.041Z"/></g><text class="c" transform="translate(30.5 26.902)"><tspan x="0" y="0">NEXT WROMOX</tspan></text></g></g></svg>