<svg xmlns="http://www.w3.org/2000/svg" xmlns:xlink="http://www.w3.org/1999/xlink" width="60.5" height="24.5" viewBox="0 0 60.5 24.5"><defs><style>.a,.c{fill:#141f38;}.b{clip-path:url(#a);}.c{stroke:#141f38;font-size:7px;font-family:LucidaHandwriting-Italic, Lucida Handwriting;font-style:italic;}</style><clipPath id="a"><rect class="a" width="20.25" height="23.143" transform="translate(0 1)"/></clipPath></defs><g transform="translate(0 -1)"><g class="b"><path class="a" d="M15.911,8.232V6.786a5.786,5.786,0,0,0-11.571,0V8.232H0V20.527a3.616,3.616,0,0,0,3.616,3.616H16.634a3.616,3.616,0,0,0,3.616-3.616V8.232ZM7.232,6.786a2.893,2.893,0,1,1,5.786,0V8.232H7.232Zm7.232,5.424a1.085,1.085,0,1,1,1.085-1.085A1.085,1.085,0,0,1,14.464,12.21Zm-8.679,0a1.085,1.085,0,1,1,1.085-1.085A1.085,1.085,0,0,1,5.786,12.21Z"/></g><text class="c" transform="translate(22.5 12.5)"><tspan x="0" y="0">NEXT</tspan><tspan x="0" y="10">WROMOX</tspan></text></g></svg>