<svg xmlns="http://www.w3.org/2000/svg" xmlns:xlink="http://www.w3.org/1999/xlink" width="65" height="23.143" viewBox="0 0 65 23.143"><defs><style>.a,.c,.d{fill:#fff;}.b{clip-path:url(#a);}.c{font-size:11px;}.c,.d{font-family:MaiandraGD-Regular, Maiandra GD;}.d{font-size:7px;}</style><clipPath id="a"><rect class="a" width="20.25" height="23.143" transform="translate(0.5 1)"/></clipPath></defs><g transform="translate(2167 -7627)"><g transform="translate(-2167.5 7626)"><g class="b"><path class="a" d="M16.411,8.232V6.786a5.786,5.786,0,0,0-11.571,0V8.232H.5V20.527a3.616,3.616,0,0,0,3.616,3.616H17.134a3.616,3.616,0,0,0,3.616-3.616V8.232ZM7.732,6.786a2.893,2.893,0,1,1,5.786,0V8.232H7.732Zm7.232,5.424a1.085,1.085,0,1,1,1.085-1.085A1.085,1.085,0,0,1,14.964,12.21Zm-8.679,0a1.085,1.085,0,1,1,1.085-1.085A1.085,1.085,0,0,1,6.286,12.21Z"/></g><text class="c" transform="translate(20.5 12)"><tspan x="0" y="0">WromoX</tspan></text><text class="d" transform="translate(32.5 22)"><tspan x="0" y="0">NEXT</tspan></text></g></g></svg>